<?xml version="1.0" encoding="utf-8"?>
<!-- Generator: Adobe Illustrator 16.0.0, SVG Export Plug-In . SVG Version: 6.00 Build 0)  -->
<!DOCTYPE svg PUBLIC "-//W3C//DTD SVG 1.1//EN" "http://www.w3.org/Graphics/SVG/1.1/DTD/svg11.dtd">
<svg version="1.1" id="Layer_1" xmlns="http://www.w3.org/2000/svg" xmlns:xlink="http://www.w3.org/1999/xlink" x="0px" y="0px"
	 width="190px" height="40px" viewBox="0 0 190 40" enable-background="new 0 0 190 40" xml:space="preserve">
<g>
	<path fill="#213857" d="M29.9,19.1c0.7-1.2,1.6-2.1,2.9-2.8c1.2-0.7,2.5-1,3.9-1c1.4,0,2.7,0.3,3.9,1c1.2,0.7,2.1,1.6,2.9,2.7
		c0.7,1.2,1,2.5,1,3.9c0.1,4.3-3.6,7.8-7.8,7.8c-1.4,0-2.7-0.4-3.9-1c-1.2-0.7-2.1-1.6-2.9-2.8c-0.7-1.2-1.1-2.5-1.1-3.9
		C28.8,21.6,29.2,20.3,29.9,19.1z M33.5,26.3c0.8,0.9,1.9,1.4,3.2,1.4s2.4-0.4,3.2-1.4c0.8-0.9,1.2-2,1.2-3.3c0-1.3-0.4-2.4-1.3-3.3
		c-0.8-0.9-1.9-1.4-3.2-1.4s-2.4,0.4-3.2,1.3s-1.2,2-1.2,3.3C32.2,24.2,32.6,25.4,33.5,26.3z"/>
	<path fill="#213857" d="M51.2,30.4h-3.3V7.8h3.3V30.4z"/>
	<path fill="#213857" d="M58.9,30.4h-3.3V7.8h3.3V30.4z"/>
	<path fill="#213857" d="M65.7,24c0.1,2.2,2.2,3.9,4.4,3.9c1.9,0,3.4-0.8,3.9-2.5l2.8,0.9c-0.5,1.8-2,3.3-3.8,4
		c-0.9,0.3-1.8,0.5-2.9,0.5c-4.3,0.1-7.8-3.4-7.8-7.7c0-1.4,0.3-2.7,1-3.8c0.7-1.2,1.5-2.1,2.7-2.8c1.1-0.7,2.4-1,3.8-1
		c2.3,0,4,0.7,5.3,2.1c1.3,1.4,1.9,3.2,1.9,5.5c0,0.4,0,0.7-0.1,1H65.7z M67.2,19.1c-0.7,0.6-1.2,1.4-1.3,2.4h7.8
		c-0.1-1-0.4-1.8-1.2-2.4c-0.7-0.6-1.6-0.9-2.7-0.9C68.8,18.2,67.9,18.5,67.2,19.1z"/>
	<path fill="#213857" d="M81.4,28.3c-1.3-1.4-2-3.3-2-5.3c0-1.8,0.7-3.7,1.9-5.2c1.2-1.5,3.2-2.4,5.4-2.4c0.8,0,1.7,0.2,2.6,0.6
		c1,0.4,1.7,1,2.2,1.9v-2.3h3.2v14.7c0,1.6-0.4,2.9-1.1,4c-0.7,1.1-1.6,2-2.9,2.6c-1.2,0.6-2.6,0.9-4.1,0.9c-2.2,0-4.3-0.7-5.8-2.2
		c-0.8-0.8-1.3-1.7-1.5-2.8l3.1-0.9c0.2,0.8,0.7,1.5,1.4,2.1c0.8,0.6,1.6,0.9,2.7,0.9c2.4,0,4.8-1.3,4.8-4.4v-2.4
		c-0.4,0.6-0.9,1.1-1.5,1.5c-0.7,0.4-1.3,0.7-1.8,0.8c-0.5,0.1-1,0.2-1.5,0.2C84.5,30.6,82.6,29.7,81.4,28.3z M90.3,19.7
		c-0.8-0.9-1.9-1.3-3.2-1.3c-1.3,0-2.4,0.4-3.2,1.3c-0.8,0.9-1.2,2-1.2,3.3c0,1.3,0.4,2.4,1.3,3.3c0.8,0.9,1.9,1.4,3.2,1.4
		c1.3,0,2.4-0.4,3.2-1.4c0.8-0.9,1.2-2,1.2-3.3C91.5,21.6,91.1,20.5,90.3,19.7z"/>
	<path fill="#213857" d="M101.5,24c0.1,2.2,2.2,3.9,4.4,3.9c1.9,0,3.4-0.8,3.9-2.5l2.8,0.9c-0.5,1.8-2,3.3-3.8,4
		c-0.9,0.3-1.8,0.5-2.9,0.5c-4.3,0.1-7.8-3.4-7.8-7.7c0-1.4,0.3-2.7,1-3.8c0.7-1.2,1.5-2.1,2.7-2.8c1.1-0.7,2.4-1,3.8-1
		c2.3,0,4,0.7,5.3,2.1c1.3,1.4,1.9,3.2,1.9,5.5c0,0.4,0,0.7-0.1,1H101.5z M103,19.1c-0.7,0.6-1.2,1.4-1.3,2.4h7.8
		c-0.1-1-0.4-1.8-1.2-2.4c-0.7-0.6-1.6-0.9-2.7-0.9C104.6,18.2,103.7,18.5,103,19.1z"/>
	<path fill="#213857" d="M137.7,10.8c0-0.6,0.2-1.1,0.7-1.6c0.4-0.4,0.9-0.7,1.5-0.7c0.6,0,1.1,0.2,1.5,0.7c0.4,0.4,0.6,0.9,0.6,1.6
		c0,0.6-0.2,1.1-0.6,1.5c-0.4,0.4-0.9,0.7-1.5,0.7c-0.6,0-1.1-0.2-1.5-0.7C137.9,11.9,137.7,11.4,137.7,10.8z M138.2,15.6h3.3v14.8
		h-3.3V15.6z"/>
	<path fill="#213857" d="M145.9,28.6c-0.6-0.8-0.9-1.5-1-2.2l2.8-0.7c0.3,1.4,1.3,2.4,3,2.4c1.3,0,2.1-0.7,2.1-1.7
		c0-0.8-0.5-1.3-1.8-1.6l-1.9-0.4c-2.6-0.6-3.9-2.2-3.9-4.2c0-1.3,0.5-2.4,1.5-3.3c1-0.9,2.2-1.4,3.7-1.4c2.3,0,3.8,0.9,4.6,2
		c0.6,0.7,0.8,1.4,0.9,2l-2.8,0.8c-0.3-1.1-1.1-2.1-2.7-2.1c-0.5,0-1,0.1-1.4,0.5c-0.4,0.3-0.6,0.7-0.6,1.2c0,0.8,0.6,1.4,1.5,1.5
		l2,0.4c1.3,0.3,2.4,0.8,3.1,1.6c0.7,0.8,1.1,1.8,1.1,2.8c0,2.3-1.7,4.6-5.4,4.6C148.4,30.7,146.8,29.8,145.9,28.6z"/>
	<path fill="#213857" d="M169.7,22.2c0-2.2-1.1-3.7-3.3-3.7c-1,0-1.9,0.3-2.5,1c-0.6,0.7-0.9,1.6-0.9,2.7v8.3h-3.3V7.8h3.3v9.7
		c0.4-0.6,1-1,1.5-1.4c0.6-0.3,1.1-0.6,1.6-0.7c0.4-0.1,0.9-0.1,1.3-0.1c1.8,0,3.2,0.5,4.1,1.7c1,1.1,1.4,2.6,1.4,4.3v9.1h-3.3V22.2
		z"/>
	<path fill="#213857" d="M185.8,30.4c-0.1-0.4-0.1-1.1-0.1-2c-0.5,0.8-1.1,1.4-1.9,1.8c-0.8,0.4-1.6,0.5-2.4,0.5
		c-1.4,0-2.7-0.4-3.6-1.3c-0.9-0.8-1.4-1.8-1.4-3.1v-0.1c0-2.1,1.3-3.3,2.9-3.9c1.1-0.4,2.2-0.6,3.3-0.6h1.8c0.9,0,1.4-0.4,1.4-1.3
		c0-0.6-0.2-1.2-0.7-1.6c-0.5-0.4-1.2-0.7-2.2-0.7c-1.8,0-3,1-3.2,2.5l-3-0.7c0.1-0.7,0.4-1.4,1-2.2c0.6-0.8,1.3-1.4,2.3-1.8
		c0.8-0.4,1.8-0.6,3-0.6c2.8,0,4.6,1,5.5,3c0.3,0.7,0.5,1.6,0.5,2.6v7.1c0,1,0,1.8,0.1,2.4H185.8z M185.7,24h-3.2
		c-0.7,0-1.3,0.2-1.9,0.5c-0.6,0.4-0.9,0.9-0.9,1.5c0,1.2,1,2,2.4,2c1.1,0,2-0.3,2.7-1s1-1.5,1-2.6V24z"/>
</g>
<g>
</g>
<g>
	<path fill="#213857" stroke="#213857" stroke-width="2" stroke-miterlimit="10" d="M24,15.3l2.9-1.9c-1-1.5-2.3-2.7-3.9-3.6
		c-1.6-0.9-3.3-1.3-5.1-1.3c-0.2,0-0.5,0-0.7,0c0.1,0.5,0,1.6-0.2,1.9c-0.2,0.4-0.6,0.9-0.8,1.2c-0.2,0.3-1,0.5-1.4,0.9
		c1-0.5,2-0.7,3.1-0.7C20.5,12,22.6,13.1,24,15.3z M17.9,27.2c-2,0-3.8-0.7-5.2-2.2c-1.5-1.5-2.2-3.3-2.2-5.4c0-2.1,0.7-3.9,2.2-5.4
		c0.5-0.5,1.1-1,1.7-1.3c-0.5,0.1-1.2,0.1-1.4,0.2c-0.4,0.1-1.2-0.1-1.8-0.2c-0.6-0.1-0.8-0.1-1.1-0.2c-0.3-0.1-0.4-0.2-0.4-0.2
		c-0.1,0.1-0.2,0.2-0.3,0.3c-1.5,1.9-2.3,4.2-2.3,6.7c0,3,1.1,5.6,3.2,7.8c2.1,2.2,4.7,3.2,7.7,3.2c1.8,0,3.5-0.4,5.1-1.3
		c1.6-0.9,2.9-2.1,3.9-3.6L24,23.8C22.6,26.1,20.5,27.2,17.9,27.2z"/>
</g>
<path fill="#15122E" stroke="#15122E" stroke-width="2" stroke-linecap="round" stroke-linejoin="bevel" stroke-miterlimit="10" d="
	M14.7,12.7c-0.1,0.1-0.2,0.2-0.4,0.2C14.5,12.8,14.6,12.8,14.7,12.7z"/>
<path fill-rule="evenodd" clip-rule="evenodd" fill="#213857" d="M131.3,15.8c0-2.6,0-5.1,0-7.7c0.2,0,0.4-0.1,0.5-0.1
	c1.1,0,2.2,0,3.2,0c0.4,0,0.6,0.1,0.5,0.5c0,4.2,0,8.3,0,12.5c-0.1,4.8-3.8,8.9-8.5,9.6c-5.4,0.8-10.3-2.8-11.3-8.2
	c-0.9-4.8,2-9,6.2-10c3.5-0.9,6.4,0.2,8.8,2.9c0.1,0.1,0.2,0.2,0.3,0.4C131.1,15.6,131.1,15.6,131.3,15.8z M122.8,20.8
	c0,0.2,0.1,0.3,0.1,0.5c0.3,1.3,1.4,2.3,2.8,2.2c1.3,0,2.5-1,2.7-2.4c0.3-2.1-1.1-4.1-3.2-4.6c-2.1-0.5-4.3,0.6-5,2.7
	c-0.7,2-0.2,3.9,1.3,5.4c1.5,1.6,3.5,2.2,5.6,1.6c3-0.8,4.7-3.7,4.1-7c-0.6-3.5-3.9-6-7.5-5.8c-3.5,0.2-6.5,3.2-6.7,6.8
	c-0.3,5.7,4.7,9.7,9.6,9.1c4.2-0.5,7.6-4.2,7.6-8.5c0-3.6,0-7.2,0-10.8c0-0.7-0.3-0.7-0.8-0.7c-0.5,0-0.8,0-0.8,0.7
	c0,3.6,0,7.1,0,10.7c0,0.4,0,0.7,0,1.1c-0.6,4.1-4.4,6.6-8.2,6c-3.9-0.6-6.7-4.9-5.6-8.7c0.8-2.7,3.5-4.5,6.3-4
	c2.9,0.5,4.9,3,4.7,5.9c-0.1,1.9-1.3,3.4-3.2,3.8c-1.8,0.4-3.6-0.3-4.5-1.9c-0.4-0.6-0.6-1.3-0.5-2C122,20.8,122.3,20.8,122.8,20.8z
	"/>
<path fill-rule="evenodd" clip-rule="evenodd" fill="#213857" d="M135.7,7.1c-0.8-1.3-1.5-2.6-2.3-4c-0.8,1.4-1.6,2.7-2.4,4.1
	c0.1,0,0.2,0,0.2-0.1c0.6-0.6,1.2-0.5,1.8,0c0.1,0.1,0.5,0.1,0.6,0c0.7-0.6,1.4-0.7,2.1,0.1C135.6,7.2,135.6,7.2,135.7,7.1z"/>
<path fill-rule="evenodd" clip-rule="evenodd" fill="#213857" d="M4.7,17c-0.5,0.4-1,0.6-1.5,0.4c-0.6-0.2-0.9-0.6-1-1.1
	c0-0.1,0-0.1,0-0.2c0.1-0.3,0-0.5-0.1-0.8c-0.1-0.4-0.2-0.8-0.4-1.1c0-0.1-0.1-0.2-0.2-0.2c-0.4-0.2-0.4-0.7-0.2-1
	c0-0.1,0.1-0.1,0.1-0.2c-0.1-1.1,0.3-2.1,1-3c1.5-1.7,2.9-3.5,4.4-5.2c0.6-0.7,1.2-1.3,1.7-2C8.9,2.1,9.3,1.9,9.9,2
	c1.1,0.2,2.3,0.3,3.4,0.4c1.4,0.2,2.7,0.3,4.1,0.5c0.7,0.1,1.4,0.2,2,0.2c0,0,0.1,0,0.1,0C20,3.3,20.2,3.6,19.9,4
	c-0.1,0.1-0.2,0.2-0.3,0.4c-1.6,2-3.3,3.9-4.9,5.9c-0.4,0.5-0.8,0.9-1.2,1.4c-0.3,0.3-0.6,0.5-1,0.4c-0.7-0.1-1.3-0.2-2-0.2
	c-1.1-0.1-2.3-0.3-3.4-0.4c-1.3-0.2-2.5-0.3-3.8-0.5c-0.2,0-0.4,0-0.6-0.1c-0.2-0.1-0.3,0-0.4,0.2c-0.3,0.5-0.3,1.1-0.3,1.6
	c0,0.1,0,0.1,0.1,0.1c0.4,0.3,0.5,0.7,0.2,1c0,0,0,0.1,0,0.2c0.1,0.4,0.3,0.9,0.5,1.3c0,0.1,0.1,0.1,0.2,0.1c0.3,0,0.4,0.2,0.5,0.4
	C3.7,16.5,4,16.9,4.7,17z M11,7.6c0.3,0,0.5-0.1,0.7-0.4c0.2-0.3,0.1-0.6-0.3-0.7c-0.3-0.1-0.6,0-0.8,0.2c-0.2,0.2-0.3,0.3-0.2,0.6
	C10.5,7.5,10.7,7.6,11,7.6z"/>
<path fill-rule="evenodd" clip-rule="evenodd" fill="#213856" stroke="#FFFFFF" stroke-width="0.5" stroke-miterlimit="10" d="
	M19.9,8.8c0,0.7-0.3,1.2-0.7,1.7c-0.5,0.8-1.2,1.4-1.9,2.1c-0.6,0.7-1.3,1.3-1.8,2.1c-0.1,0.2-0.2,0.4-0.4,0.5
	c-0.4,0.6-1.1,0.8-1.8,0.6c-0.9-0.3-1.9-0.4-2.8-0.4c-0.9,0-1.9-0.1-2.8-0.2c-0.5,0-1-0.2-1.4-0.4c-0.4-0.2-0.8-0.6-0.9-1
	C5.2,13.1,5,12.5,4.8,12c-0.1-0.3,0.1-0.5,0.4-0.5c1,0.1,2,0.2,3.1,0.4c1.3,0.2,2.7,0.3,4,0.5c0.6,0.1,1-0.1,1.4-0.5
	c1.4-1.7,2.9-3.4,4.3-5.1c0.1-0.1,0.2-0.3,0.3-0.4C18.6,6,18.9,6,19,6.3c0.3,0.6,0.5,1.2,0.8,1.8C19.8,8.3,19.8,8.5,19.9,8.8z"/>
<path fill-rule="evenodd" clip-rule="evenodd" fill="#FFFFFF" d="M90.5,30c-0.1-0.1-0.1-0.2-0.1-0.2c0,0,0.1-0.1,0.1-0.1
	c0,0,0.1,0.1,0.1,0.1C90.6,29.8,90.5,29.9,90.5,30z"/>
<path fill-rule="evenodd" clip-rule="evenodd" fill="#FFFFFF" d="M93.8,13.6c0,0,0.1,0,0.1,0c0,0,0.1-0.1,0.1-0.1
	c-0.1,0-0.1-0.1-0.2-0.1c0,0-0.1,0-0.1,0c-0.1,0-0.2-0.1-0.3-0.1c0-0.1,0-0.2,0-0.3c0.1-0.1,0.2-0.1,0.3-0.1c0,0,0,0.1,0,0.1
	c0,0-0.1,0-0.1,0.1c0,0-0.1,0.1-0.1,0.1c0,0,0.1,0.1,0.1,0.1c0.1,0,0.2,0,0.3,0c0.1,0.1,0.2,0.2,0.2,0.3c0,0.1-0.1,0.2-0.2,0.3
	C93.9,13.8,93.8,13.7,93.8,13.6C93.8,13.7,93.8,13.7,93.8,13.6z"/>
<path fill-rule="evenodd" clip-rule="evenodd" fill="#FFFFFF" d="M78.9,8.1c-0.3,0-0.5-0.1-0.6-0.4c-0.1-0.3,0-0.5,0.2-0.7
	c0.3-0.3,0.6-0.4,1-0.3c0.4,0.1,0.5,0.5,0.3,0.8C79.5,7.9,79.2,8,78.9,8.1z"/>
<g>
</g>
<g>
</g>
<g>
</g>
<g>
</g>
<g>
</g>
<g>
</g>
<g>
</g>
</svg>
